<svg width="590" height="466" viewBox="0 0 590 466" fill="none" xmlns="http://www.w3.org/2000/svg">
<g clip-path="url(#clip0_6_2)">
<rect width="590" height="466" fill="black"/>
<path d="M73.2 153.8H157.2V416H73.2V153.8ZM71.4 60.8C71.4 48.4 76.2 38.2 85.8 30.2C95.8 22.2 106.4 18.2 117.6 18.2C128.8 18.2 139 22.2 148.2 30.2C157.8 38.2 162.6 48.4 162.6 60.8C162.6 73.2 157.8 83.4 148.2 91.4C139 99 128.8 102.8 117.6 102.8C106.4 102.8 95.8 99 85.8 91.4C76.2 83.4 71.4 73.2 71.4 60.8ZM319.908 153.8L326.508 200.6L325.308 196.4C334.508 180 347.508 166.8 364.308 156.8C381.108 146.4 401.708 141.2 426.108 141.2C450.908 141.2 471.508 148.6 487.908 163.4C504.708 177.8 513.308 196.6 513.708 219.8V416H429.708V251C429.308 239.4 426.108 230.2 420.108 223.4C414.508 216.2 404.908 212.6 391.308 212.6C378.508 212.6 367.308 216.8 357.708 225.2C348.108 233.6 340.708 245 335.508 259.4C330.308 273.8 327.708 290.4 327.708 309.2V416H243.708V153.8H319.908Z" fill="white"/>
</g>
<defs>
<clipPath id="clip0_6_2">
<rect width="590" height="466" fill="white"/>
</clipPath>
</defs>
</svg>
