<?xml version="1.0" encoding="UTF-8"?>
<svg version="1.1" xmlns="http://www.w3.org/2000/svg" width="512" height="512">
<path d="M0 0 C0.98190308 0.00337372 1.96380615 0.00674744 2.97546387 0.01022339 C18.58661506 0.08767411 33.61669823 0.86526229 48.875 4.4375 C49.89819336 4.67355957 50.92138672 4.90961914 51.97558594 5.15283203 C107.37138579 18.37519054 157.47122388 53.24887643 187.65234375 101.77734375 C203.36136807 127.48238885 213.5074305 154.73503519 218.875 184.4375 C219.00632324 185.13198242 219.13764648 185.82646484 219.27294922 186.54199219 C223.51491701 209.92338546 221.93876941 236.18686592 217.875 259.4375 C217.7522168 260.15244629 217.62943359 260.86739258 217.50292969 261.60400391 C216.08610598 269.50972408 214.44850275 275.36262554 208.1875 280.75 C203.39226425 283.19285595 198.93848754 284.35600596 193.66015625 282.7734375 C188.62171977 280.46532693 185.38290294 277.45330588 182.875 272.4375 C182.09892073 263.9454018 183.50065614 255.89978916 185.12109375 247.61328125 C186.8312169 238.4819495 187.1026693 229.46943377 187.125 220.1875 C187.12667175 219.53053131 187.12834351 218.87356262 187.13006592 218.19668579 C187.13234975 203.14052719 185.13893809 189.12522142 181.875 174.4375 C156.795 174.1075 131.715 173.7775 105.875 173.4375 C106.535 178.0575 107.195 182.6775 107.875 187.4375 C108.42549994 193.85999927 107.49477015 198.17131826 103.875 203.4375 C99.20807884 207.87676647 95.39751318 208.74965581 89.15234375 208.6484375 C84.31079505 208.19999217 81.56285034 206.09408441 78.125 202.8125 C72.29053694 195.11399124 72.87710832 181.9554207 71.875 173.4375 C25.345 173.4375 -21.185 173.4375 -69.125 173.4375 C-71.73264575 195.07355467 -71.73264575 195.07355467 -72.51611328 216.63330078 C-72.49996622 218.94233111 -72.51617833 221.24961308 -72.53515625 223.55859375 C-72.5512086 237.30368974 -70.89107889 250.82174987 -69.125 264.4375 C-67.81407631 264.43083817 -67.81407631 264.43083817 -66.47666931 264.42404175 C-58.22310493 264.3838957 -49.96957354 264.35348039 -41.7159338 264.33387566 C-37.47309628 264.32345771 -33.23033975 264.30933498 -28.98754883 264.28662109 C-24.88971223 264.26482159 -20.79195332 264.25291642 -16.69406319 264.24774551 C-15.13403667 264.24406249 -13.57401419 264.23687053 -12.01402092 264.22603989 C-9.82167388 264.21143027 -7.62964408 264.20952597 -5.43725586 264.21044922 C-4.19149277 264.206008 -2.94572968 264.20156677 -1.66221619 264.19699097 C4.07347661 264.58698294 8.84601436 265.547765 12.75 269.9375 C16.42172246 274.4940745 17.35736097 278.64916837 16.875 284.4375 C15.22895187 290.34390798 12.67902955 292.96224458 7.875 296.4375 C5.07458289 297.83770855 2.72197961 297.60113335 -0.41064453 297.64282227 C-1.05467224 297.65272186 -1.69869995 297.66262146 -2.36224365 297.67282104 C-4.49406235 297.70444499 -6.62590335 297.72919687 -8.7578125 297.75390625 C-10.23469629 297.77447502 -11.71157418 297.79547147 -13.18844604 297.81687927 C-17.07805611 297.87210799 -20.96771937 297.9215137 -24.85742188 297.96972656 C-28.82556907 298.01993577 -32.79363889 298.07562486 -36.76171875 298.13085938 C-44.54941367 298.23845072 -52.33717286 298.33989348 -60.125 298.4375 C-58.88783011 301.73627904 -57.64369568 305.0323916 -56.3984375 308.328125 C-56.05353271 309.24803223 -55.70862793 310.16793945 -55.35327148 311.11572266 C-44.92765288 338.65098016 -29.61478017 363.41198444 -10.125 385.4375 C-9.36574219 386.30761719 -8.60648438 387.17773438 -7.82421875 388.07421875 C-1.49834042 395.23156243 5.09270246 402.64606699 12.58984375 408.58984375 C16.01855711 411.36211968 17.58360668 414.21412904 18.16015625 418.61328125 C18.38707786 424.4836446 17.3707816 428.55619116 13.43359375 433.1015625 C8.86968232 437.57017184 5.15493673 438.21864844 -1.125 438.4375 C-58.89138789 437.73134566 -111.79699137 414.02293624 -153.125 374.4375 C-153.87523437 373.72851562 -154.62546875 373.01953125 -155.3984375 372.2890625 C-192.59218725 336.2713997 -216.2268282 280.91502616 -217.29406738 229.36003113 C-217.35315805 225.44831913 -217.37211942 221.53712624 -217.375 217.625 C-217.37567474 216.80080566 -217.37634949 215.97661133 -217.37704468 215.12744141 C-217.36042449 202.33083071 -216.7617381 189.99574376 -214.125 177.4375 C-213.95871094 176.59977051 -213.79242188 175.76204102 -213.62109375 174.89892578 C-209.61308927 155.03332579 -202.7794739 136.24036818 -193.125 118.4375 C-192.78388184 117.79151855 -192.44276367 117.14553711 -192.09130859 116.47998047 C-177.1990571 88.29776444 -155.59705463 62.4759769 -129.79296875 43.65673828 C-128.10716213 42.42446102 -126.44405295 41.16543445 -124.78125 39.90234375 C-103.41224042 23.90407242 -77.99885733 12.31789337 -52.1875 5.6875 C-51.47505127 5.50106934 -50.76260254 5.31463867 -50.02856445 5.12255859 C-33.4827895 1.10720566 -16.9745051 -0.11389257 0 0 Z M45.875 38.4375 C46.22981445 38.89970947 46.58462891 39.36191895 46.95019531 39.83813477 C70.29724828 70.569319 86.79430256 103.50184187 97.875 140.4375 C121.635 140.4375 145.395 140.4375 169.875 140.4375 C168.2000474 135.41264219 166.44518008 131.46301104 163.875 126.9375 C163.48054688 126.24188965 163.08609375 125.5462793 162.6796875 124.82958984 C156.78048011 114.61960159 149.99253863 105.28146312 141.94140625 96.65625 C140.09567316 94.67444207 138.35889326 92.64146784 136.625 90.5625 C113.34812848 64.1042793 80.17751235 45.71959759 45.875 38.4375 Z M-133.125 90.4375 C-143.32241566 100.74389567 -166.125 125.06777348 -166.125 140.4375 C-142.695 140.4375 -119.265 140.4375 -95.125 140.4375 C-92.155 131.5275 -89.185 122.6175 -86.125 113.4375 C-83.26106323 106.66086089 -80.37901822 100.01790865 -77.125 93.4375 C-76.53549561 92.23988037 -76.53549561 92.23988037 -75.93408203 91.01806641 C-68.03242517 75.12876125 -58.72669743 60.4414371 -47.83251953 46.43676758 C-45.08051727 43.30126259 -45.08051727 43.30126259 -44.125 39.4375 C-76.47991478 39.4375 -111.47826145 69.05752318 -133.125 90.4375 Z M-0.97265625 41.01953125 C-6.27016756 46.35441477 -11.18055377 51.87186243 -15.82373047 57.78564453 C-16.74117874 58.95027024 -17.66532782 60.10963261 -18.59423828 61.26513672 C-27.53768132 72.40051809 -35.06440378 84.03317791 -42.125 96.4375 C-42.49963379 97.0783252 -42.87426758 97.71915039 -43.26025391 98.37939453 C-50.77920098 111.24734385 -57.50524754 125.95849017 -61.125 140.4375 C-19.875 140.4375 21.375 140.4375 63.875 140.4375 C61.88972082 133.81990275 59.88698877 127.61464478 57.1875 121.3125 C56.83719727 120.49193115 56.48689453 119.6713623 56.12597656 118.82592773 C43.6762872 90.00606716 26.42697747 60.68148859 2.875 39.4375 C0.72279589 39.22070182 0.72279589 39.22070182 -0.97265625 41.01953125 Z M-178.125 173.4375 C-179.84595558 177.73988895 -180.88006406 181.67611189 -181.6875 186.1875 C-181.81318359 186.85265625 -181.93886719 187.5178125 -182.06835938 188.203125 C-183.90881594 198.22445916 -184.3618002 208.06313335 -184.375 218.25 C-184.37667175 218.93225647 -184.37834351 219.61451294 -184.38006592 220.31744385 C-184.38175982 231.89252622 -183.49879117 243.09255986 -181.125 254.4375 C-180.95581055 255.2615332 -180.78662109 256.08556641 -180.61230469 256.93457031 C-180.04306249 261.0136896 -180.04306249 261.0136896 -178.125 264.4375 C-175.78246218 264.53242722 -173.46953896 264.56309791 -171.12670898 264.55102539 C-170.39504517 264.55117142 -169.66338135 264.55131744 -168.9095459 264.5514679 C-166.48003216 264.55076867 -164.05059417 264.54297585 -161.62109375 264.53515625 C-159.94100486 264.5332921 -158.26091543 264.53186819 -156.58082581 264.53086853 C-152.15026357 264.52704307 -147.7197339 264.51721256 -143.28918457 264.50616455 C-138.77157024 264.49595103 -134.25395066 264.49137104 -129.73632812 264.48632812 C-120.86587107 264.47559031 -111.99543824 264.45851356 -103.125 264.4375 C-103.27914368 262.37492138 -103.43458948 260.31244005 -103.59057617 258.25 C-103.67699875 257.10144531 -103.76342133 255.95289063 -103.85246277 254.76953125 C-104.08031347 251.98383608 -104.35701308 249.21384478 -104.67578125 246.4375 C-105.41513971 238.40768941 -105.31099693 230.33658952 -105.31030273 222.27978516 C-105.3124737 219.47152175 -105.33063842 216.66366221 -105.34960938 213.85546875 C-105.3814711 203.23022456 -104.85266009 192.85606395 -103.5559082 182.30859375 C-103.03280747 178.25844922 -103.03280747 178.25844922 -103.125 173.4375 C-127.875 173.4375 -152.625 173.4375 -178.125 173.4375 Z M-166.125 297.4375 C-164.4500474 302.46235781 -162.69518008 306.41198896 -160.125 310.9375 C-159.53332031 311.98091553 -159.53332031 311.98091553 -158.9296875 313.04541016 C-153.03048011 323.25539841 -146.24253863 332.59353688 -138.19140625 341.21875 C-136.34567316 343.20055793 -134.60889326 345.23353216 -132.875 347.3125 C-110.32769972 372.94143586 -78.05846029 391.06645324 -45.125 399.4375 C-44.465 399.4375 -43.805 399.4375 -43.125 399.4375 C-44.44416037 396.64012333 -45.92249636 394.21424413 -47.77734375 391.7421875 C-48.30078369 391.03618408 -48.82422363 390.33018066 -49.36352539 389.6027832 C-49.92418701 388.84698975 -50.48484863 388.09119629 -51.0625 387.3125 C-71.14831741 359.77966349 -85.11118446 329.9824005 -95.125 297.4375 C-118.555 297.4375 -141.985 297.4375 -166.125 297.4375 Z " fill="#000000" transform="translate(254.125,31.5625)"/>
<path d="M0 0 C3.01308954 1.85101099 5.81518899 3.91847133 8.625 6.0625 C10.2019736 7.23332324 11.78012056 8.40256757 13.359375 9.5703125 C14.13990234 10.15071289 14.92042969 10.73111328 15.72460938 11.32910156 C19.05628681 13.77566813 22.45754102 16.11296919 25.875 18.4375 C31.8608325 22.52385227 37.81516925 26.65238434 43.75 30.8125 C44.59030762 31.401521 45.43061523 31.99054199 46.29638672 32.59741211 C48.00956009 33.79865703 49.72261286 35.00007396 51.43554688 36.20166016 C55.62173125 39.13724984 59.81099592 42.06843609 64 45 C65.66668197 46.16664481 67.33334862 47.3333115 69 48.5 C69.825 49.0775 70.65 49.655 71.5 50.25 C74 52 76.5 53.75 79 55.5 C79.82588623 56.07806396 80.65177246 56.65612793 81.50268555 57.25170898 C83.16061476 58.41237289 84.81833146 59.5733404 86.47583008 60.73461914 C90.77444072 63.74571912 95.07719509 66.7506292 99.38671875 69.74609375 C100.27423828 70.36419922 101.16175781 70.98230469 102.07617188 71.61914062 C103.7544731 72.78780064 105.43405585 73.95462356 107.11523438 75.11914062 C127.90860637 89.61359993 127.90860637 89.61359993 131 101 C132.10800372 111.98985082 130.64806566 119.76856243 123.6875 128.3125 C118.45738355 134.35309455 112.62838616 136.5362261 104.9375 137.1875 C103.57150852 137.32577918 102.20562068 137.4650863 100.83984375 137.60546875 C99.57269531 137.73566406 98.30554688 137.86585938 97 138 C94.99848453 138.32410947 92.99816986 138.65586584 91 139 C91.37286133 139.79059814 91.74572266 140.58119629 92.12988281 141.39575195 C93.53524858 144.38160898 94.93623321 147.36944556 96.33447266 150.35864258 C96.9359687 151.64231534 97.53910928 152.92521904 98.14404297 154.20727539 C110.46097128 180.32202306 110.46097128 180.32202306 107.3046875 192.734375 C104.16913749 201.42959773 98.99188388 207.14062316 90.75 211.1875 C90.04270752 211.5484375 89.33541504 211.909375 88.60668945 212.28125 C79.3426991 216.94198508 69.90713905 221.27425338 60.48046875 225.59375 C59.52035889 226.03396484 58.56024902 226.47417969 57.57104492 226.92773438 C49.8277718 230.15710059 40.59549188 230.38075559 32.59375 227.9765625 C19.87034409 222.16106636 15.12851576 210.82246401 9.6875 198.6875 C9.06295552 197.31655265 8.43731089 195.94610593 7.81054688 194.57617188 C6.66713611 192.07548577 5.53150838 189.57184115 4.40112305 187.06518555 C3.31188798 184.68230591 2.19391747 182.3314605 1 180 C0.24976563 180.88042969 -0.50046875 181.76085937 -1.2734375 182.66796875 C-8.47171355 190.91959331 -14.76056341 197.31796209 -26.0625 198.9375 C-35.27084656 199.39719905 -42.70776036 196.63322417 -50 191 C-56.77283808 183.86408194 -58.70649044 176.66091046 -59 167 C-58.85266003 162.41222191 -58.46216264 157.85974701 -58.04370117 153.28955078 C-57.92804915 151.94950284 -57.81324125 150.60938183 -57.69920349 149.26919556 C-57.38967519 145.66083722 -57.068158 142.05364172 -56.74410796 138.44656229 C-56.40486485 134.64958514 -56.07609173 130.85169977 -55.7459259 127.05392456 C-55.18998371 120.67679575 -54.62663392 114.30035663 -54.05834961 107.92431641 C-53.40419755 100.58431729 -52.75973469 93.24352044 -52.1209566 85.90216839 C-51.43716679 78.04423815 -50.74678298 70.18689765 -50.05422044 62.32973623 C-49.85676081 60.08500072 -49.66044759 57.84016739 -49.46437645 55.59531021 C-49.15412023 52.04735936 -48.83936083 48.49983363 -48.52132607 44.95257187 C-48.3519453 43.05293582 -48.1866212 41.15293937 -48.02148438 39.25292969 C-45.44820827 10.79226183 -45.44820827 10.79226183 -36.8125 2.625 C-25.41877571 -5.99992677 -12.55114286 -6.18367482 0 0 Z M-14 32 C-15.30973149 46.67325551 -16.61388507 61.34699801 -17.91151428 76.02132893 C-18.51423915 82.83582516 -19.11874498 89.6501544 -19.72753906 96.46411133 C-20.31549443 103.04488777 -20.89836027 109.62610245 -21.47817993 116.20760155 C-21.69976674 118.71343001 -21.92303383 121.2191105 -22.14804077 123.72463417 C-22.46387535 127.24483322 -22.77362967 130.76551997 -23.08203125 134.28637695 C-23.17553864 135.31281311 -23.26904602 136.33924927 -23.36538696 137.39678955 C-23.93110572 143.94765021 -24.10637757 150.42582529 -24 157 C-22.84960919 155.84960919 -21.69955293 154.69888266 -20.55078125 153.546875 C-19.49083338 152.48959702 -18.42545767 151.43774005 -17.35546875 150.390625 C-14.20345098 147.28841338 -11.22846205 144.13073221 -8.375 140.75 C-5.03565215 136.95461786 -2.72817468 134.33570997 2.5078125 133.69140625 C7.51953845 133.46608342 11.77482051 133.51791805 16.19238281 136.25268555 C20.56144447 140.47599379 22.70748938 146.65647305 25.1875 152.125 C25.83420197 153.51069641 26.48274215 154.89553631 27.13305664 156.27954102 C28.78846502 159.81537294 30.41898854 163.36206921 32.04272461 166.91253662 C33.56190117 170.22529852 35.10196318 173.52828728 36.640625 176.83203125 C39.45146959 182.87691218 42.23540303 188.93383175 45 195 C51.04476527 193.20513796 56.66175847 190.50677707 62.375 187.875 C63.39722656 187.40707031 64.41945313 186.93914062 65.47265625 186.45703125 C67.98303821 185.30741708 70.49209231 184.15499936 73 183 C72.43971126 177.3807826 70.3267225 172.98291029 67.88671875 167.98046875 C67.47589554 167.1224617 67.06507233 166.26445465 66.64179993 165.38044739 C65.33080233 162.64598425 64.00953059 159.91664354 62.6875 157.1875 C61.37838757 154.46805387 60.07142116 151.7475884 58.76533508 149.02668762 C57.95392535 147.33818068 57.14041278 145.65068197 56.3243866 143.96440125 C54.42696869 140.03334928 52.55939983 136.09016849 50.7512207 132.1171875 C50.42684525 131.40506104 50.10246979 130.69293457 49.76826477 129.95922852 C47.99322142 125.43251367 48.33219313 120.73535783 49 116 C51.14336481 111.47511873 53.46581697 109.10120677 58 107 C61.81114162 106.06522274 65.47852564 105.81350863 69.39453125 105.68359375 C70.59658203 105.64169922 71.79863281 105.59980469 73.03710938 105.55664062 C74.28298828 105.51732422 75.52886719 105.47800781 76.8125 105.4375 C78.07771484 105.39431641 79.34292969 105.35113281 80.64648438 105.30664062 C83.76421889 105.2007553 86.88203035 105.09867595 90 105 C87.2831829 102.15169891 84.52315005 99.82924758 81.28125 97.6015625 C79.89800537 96.64588379 79.89800537 96.64588379 78.48681641 95.67089844 C77.50116699 94.99575195 76.51551758 94.32060547 75.5 93.625 C73.41386785 92.18517781 71.3279339 90.74506842 69.2421875 89.3046875 C68.19385742 88.58249023 67.14552734 87.86029297 66.06542969 87.11621094 C61.57146761 84.0138166 57.09675497 80.8842841 52.625 77.75 C51.80515625 77.17588379 50.9853125 76.60176758 50.140625 76.01025391 C44.91900031 72.35157159 39.70686893 68.67964294 34.5 65 C21.4859737 55.80524084 8.44515287 46.64980293 -4.6875 37.625 C-5.50782715 37.05918213 -6.3281543 36.49336426 -7.17333984 35.91040039 C-7.92437988 35.39598389 -8.67541992 34.88156738 -9.44921875 34.3515625 C-10.11268311 33.89604004 -10.77614746 33.44051758 -11.4597168 32.97119141 C-12.83749797 31.91110713 -12.83749797 31.91110713 -14 32 Z " fill="#000000" transform="translate(334,251)"/>
</svg>
